<?xml version="1.0" encoding="UTF-8" standalone="no"?><svg height="79.375mm" viewBox="0 0 90.013367 79.375" width="90.013367mm" xmlns="http://www.w3.org/2000/svg"><g fill="#333" stroke-width="1.515685" transform="matrix(.50796933632 0 0 .48365973763 -376.74097 -381.31224)"><path d="m746.11017 913.9751h-4.44931v.27413h.35848c1.1176 0 1.77129.40065 1.77129 1.49716v11.21816c-.0211 1.1176-.65369 1.51825-1.77129 1.49716h-.35848v.27413h5.20844v-.27413h-.35848c-1.18086 0-1.77129-.37956-1.77129-1.49716v-10.71208l5.54582 12.48337h.18978l5.588-12.44119v10.6699c-.0211 1.1176-.65369 1.51825-1.77129 1.49716h-.35848v.27413h6.60016v-.27413h-.35848c-1.18085 0-1.77128-.37956-1.77128-1.49716v-11.21816c-.0211-1.09651.59043-1.49716 1.77128-1.49716h.35848v-.27413h-4.44931l-4.97647 11.07056z"/><path d="m761.68306 913.9751v.27413h.35847c1.1176 0 1.77129.40065 1.77129 1.49716v11.21816c-.0211 1.1176-.65369 1.51825-1.77129 1.49716h-.35847v.27413h6.60015v-.27413h-.35847c-1.18086 0-1.77129-.37956-1.77129-1.49716v-11.21816c-.0211-1.09651.59043-1.49716 1.77129-1.49716h.35847v-.27413z"/><path d="m769.43209 913.9751v.27413h.35848c1.1176 0 1.77129.40065 1.77129 1.49716v11.21816c-.0211 1.1176-.65369 1.51825-1.77129 1.49716h-.35848v.27413h6.60016v-.27413h-.35847c-1.18086 0-1.77129-.37956-1.77129-1.49716v-5.18734h1.28629l5.08191 6.95863h4.04866v-.27413c-1.07543 0-1.7502-.44282-2.67802-1.70803l-4.02757-5.20843c2.12976-.33739 3.52149-1.87672 3.52149-3.83779 0-2.5515-1.68694-3.71127-4.99757-3.73236zm4.4704.92782c.48499-.14761.96999-.21087 1.47607-.21087 1.03325 0 1.85564.29522 2.44607.88565.61151.59043.90673 1.30738.90673 2.17194-.0211 1.96106-1.51825 3.1841-3.90105 3.1841h-.61152c-.10543 0-.21087 0-.3163-.0211z"/><path d="m788.59564 913.9751v.27413h.35847c1.1176 0 1.77129.40065 1.77129 1.49716v11.21816c-.0211 1.1176-.65369 1.51825-1.77129 1.49716h-.35847v.27413h6.60015v-.27413h-.35847c-1.18086 0-1.77129-.37956-1.77129-1.49716v-5.20843c.82239.18978 1.37064.29522 1.6026.35848.23195.0211.4639.0422.69586.0422 1.47607 0 2.67802-.37956 3.60584-1.13869.9489-.75912 1.41281-1.79237 1.41281-3.12084 0-2.61476-1.96107-3.92214-5.88321-3.92214zm4.47039.97c.0633-.0211.10544-.0211.1687-.0211.1476 0 .33738-.0633 1.13868-.0633 2.19302.0211 3.41606 1.15977 3.43714 3.28953-.0211 1.96107-1.24412 3.12084-3.0154 3.12084-.59043 0-1.20195-.0843-1.72912-.27412z"/><path d="m801.11918 913.9751v.27413h.35847c1.1176 0 1.77129.40065 1.77129 1.49716v7.73885c-.0211 3.54257 2.17194 5.41929 6.36821 5.41929 3.35279 0 5.46147-1.70802 5.46147-5.18734v-7.9708c0-1.09651.59043-1.49716 1.77129-1.49716h.35847v-.27413h-5.20843v.27413h.35848c1.11759 0 1.77128.40065 1.77128 1.49716v7.57015c0 3.14193-1.64476 4.618-4.28061 4.618-2.76237 0-4.25953-1.22303-4.25953-4.40713v-7.78102c-.0211-1.09651.59043-1.49716 1.77129-1.49716h.35848v-.27413z"/><path d="m818.05546 913.9751v.27413h.35847c1.1176 0 1.77129.40065 1.77129 1.49716v11.21816c-.0211 1.1176-.65369 1.51825-1.77129 1.49716h-.35847v.27413h7.0008c1.58151 0 2.84672-.37956 3.79562-1.1176.94891-.73804 1.4339-1.72911 1.45499-2.97323 0-1.87672-1.39173-3.3528-3.52149-3.52149v-.12652c1.77129-.23196 2.8678-1.58151 2.8678-3.33171 0-1.18086-.40065-2.08759-1.20195-2.72019-.78021-.61152-2.21411-.94891-4.25952-.97zm4.47039 7.50689c.44282-.0211.86456-.0633 1.18086-.0633 2.63585 0 4.13301 1.41282 4.13301 3.26845 0 2.00324-1.49716 3.20519-3.54258 3.20519-.61152 0-1.18086-.0633-1.77129-.25304zm0-6.57907c.59043-.0633 1.01217-.0843 1.28629-.0843 2.08759 0 3.47932 1.13869 3.47932 2.67802 0 2.02433-1.26521 3.20519-3.45823 3.20519-.40065 0-.82238-.0422-1.30738-.12652z"/><path d="m836.20554 927.74476v-11.99837c-.0211-1.09651.59043-1.49716 1.77129-1.49716h.35847v-.27413h-6.60016v.27413h.35848c1.1176 0 1.77129.40065 1.77129 1.49716v11.21816c-.0211 1.1176-.65369 1.51825-1.77129 1.49716h-.35848v.27413h11.57664l1.07542-3.69018-.25304-.0633c-.40065 1.03325-.88564 1.77128-1.45498 2.17193-.56935.40065-1.37064.59043-2.4039.59043z"/><path d="m844.6735 913.9751v.27413h.35847c1.1176 0 1.77129.40065 1.77129 1.49716v11.21816c-.0211 1.1176-.65369 1.51825-1.77129 1.49716h-.35847v.27413h6.60016v-.27413h-.35848c-1.18086 0-1.77129-.37956-1.77129-1.49716v-11.21816c-.0211-1.09651.59043-1.49716 1.77129-1.49716h.35848v-.27413z"/><path d="m861.34224 913.78532h-.23196c-.10543.42174-.44282.69587-.71695.69587-.1476 0-.52716-.10544-1.15977-.33739-.67477-.23196-1.37064-.35848-2.08759-.35848-1.22303 0-2.21411.35848-2.99432 1.07543s-1.15977 1.60259-1.15977 2.65693c0 .86456.25304 1.62368.78021 2.27737s1.49716 1.37064 2.93106 2.15085c1.32847.75912 2.21411 1.41281 2.67802 1.98216.46391.54825.71695 1.18086.73804 1.87672 0 1.34955-1.1176 2.2352-2.7202 2.21411-1.11759.0211-2.02433-.35848-2.74128-1.13869-.69586-.78021-1.15977-1.7502-1.34955-2.93106h-.29521v4.95539h.27413c.0633-.35847.35847-.6326.71695-.69586h.33738c.82239.10543 1.93999.69586 3.22628.69586 1.45499 0 2.61476-.37956 3.43714-1.15977.86456-.78021 1.28629-1.70803 1.28629-2.80454 0-.82238-.25304-1.60259-.75912-2.29846-.50608-.71695-1.41281-1.45498-2.72019-2.23519-1.87672-1.1176-3.01541-1.89781-3.37388-2.34063-.35848-.44283-.52717-.90673-.52717-1.41282 0-1.18086 1.11759-2.02433 2.3828-2.02433.99108.0211 1.85564.42174 2.59367 1.15978.71695.73803 1.1176 1.66585 1.18086 2.74128h.27413z"/><path d="m868.30744 920.57526v-4.82887c-.0211-1.09651.59043-1.49716 1.77129-1.49716h.35848v-.27413h-6.60016v.27413h.35848c1.11759 0 1.77128.40065 1.77128 1.49716v11.21816c-.0211 1.1176-.65369 1.51825-1.77128 1.49716h-.35848v.27413h6.60016v-.27413h-.35848c-1.18086 0-1.77129-.37956-1.77129-1.49716v-5.39821h6.76886v5.39821c-.0211 1.1176-.65369 1.51825-1.77129 1.49716h-.35848v.27413h6.60016v-.27413h-.35847c-1.18086 0-1.77129-.37956-1.77129-1.49716v-11.21816c0-1.09651.59043-1.49716 1.77129-1.49716h.35847v-.27413h-6.60016v.27413h.35848c1.1176 0 1.77129.40065 1.77129 1.49716v4.82887z"/><path d="m891.92724 913.9751h-11.23925v.27413h.35848c1.1176 0 1.77129.40065 1.77129 1.49716v11.21816c-.0211 1.1176-.65369 1.51825-1.77129 1.49716h-.35848v.27413h11.57664l1.07542-3.69018-.25304-.0633c-.40065 1.03325-.88564 1.77128-1.45498 2.17193-.56935.40065-1.37064.59043-2.4039.59043h-4.06974v-6.34711h3.79562c1.18086.0211 1.5815.67477 1.64476 2.10867h.27413v-5.12408h-.27413c-.0633 1.45498-.4639 2.10867-1.64476 2.10867h-3.79562v-5.52473h4.06974c1.6026 0 2.29846.67478 2.57259 2.10868l.3163-.0422z"/><path d="m894.20293 913.9751v.27413h.35848c1.1176 0 1.77129.40065 1.77129 1.49716v11.21816c-.0211 1.1176-.65369 1.51825-1.77129 1.49716h-.35848v.27413h6.60016v-.27413h-.35847c-1.18086 0-1.77129-.37956-1.77129-1.49716v-5.18734h1.28629l5.08191 6.95863h4.04866v-.27413c-1.07543 0-1.7502-.44282-2.67802-1.70803l-4.02757-5.20843c2.12976-.33739 3.52149-1.87672 3.52149-3.83779 0-2.5515-1.68694-3.71127-4.99757-3.73236zm4.4704.92782c.48499-.14761.96999-.21087 1.47607-.21087 1.03325 0 1.85564.29522 2.44607.88565.61151.59043.90673 1.30738.90673 2.17194-.0211 1.96106-1.51825 3.1841-3.90105 3.1841h-.61152c-.10543 0-.21087 0-.3163-.0211z"/><path d="m917.91432 913.78532h-.23195c-.10544.42174-.44282.69587-.71695.69587-.14761 0-.52717-.10544-1.15977-.33739-.67478-.23196-1.37064-.35848-2.08759-.35848-1.22304 0-2.21411.35848-2.99433 1.07543-.78021.71695-1.15977 1.60259-1.15977 2.65693 0 .86456.25304 1.62368.78021 2.27737s1.49716 1.37064 2.93106 2.15085c1.32847.75912 2.21411 1.41281 2.67802 1.98216.46391.54825.71695 1.18086.73804 1.87672 0 1.34955-1.1176 2.2352-2.72019 2.21411-1.1176.0211-2.02433-.35848-2.74128-1.13869-.69587-.78021-1.15977-1.7502-1.34956-2.93106h-.29521v4.95539h.27413c.0633-.35847.35847-.6326.71695-.69586h.33739c.82238.10543 1.93998.69586 3.22627.69586 1.45499 0 2.61476-.37956 3.43714-1.15977.86456-.78021 1.2863-1.70803 1.2863-2.80454 0-.82238-.25304-1.60259-.75913-2.29846-.50608-.71695-1.41281-1.45498-2.72019-2.23519-1.87672-1.1176-3.01541-1.89781-3.37388-2.34063-.35848-.44283-.52717-.90673-.52717-1.41282 0-1.18086 1.1176-2.02433 2.3828-2.02433.99108.0211 1.85564.42174 2.59368 1.15978.71695.73803 1.11759 1.66585 1.18085 2.74128h.27413z"/><path d="m787.77325 937.57333h-4.4493v.27413h.35847c1.1176 0 1.77129.40064 1.77129 1.49716v11.21815c-.0211 1.1176-.65369 1.51825-1.77129 1.49717h-.35847v.27412h5.20843v-.27412h-.35848c-1.18086 0-1.77129-.37957-1.77129-1.49717v-10.71207l5.54582 12.48336h.18978l5.588-12.44119v10.6699c-.0211 1.1176-.65369 1.51825-1.77129 1.49717h-.35848v.27412h6.60016v-.27412h-.35847c-1.18086 0-1.77129-.37957-1.77129-1.49717v-11.21815c-.0211-1.09652.59043-1.49716 1.77129-1.49716h.35847v-.27413h-4.44931l-4.97647 11.07055z"/><path d="m810.38912 952.50276c2.10868 0 3.85888-.71695 5.22952-2.12977 1.37064-1.41281 2.04541-3.1841 2.04541-5.35603 0-2.17194-.65369-3.9854-1.93998-5.44039s-2.93106-2.19302-4.9343-2.19302c-2.00325.0211-3.73236.73803-5.14517 2.10867-1.41282 1.37064-2.12977 3.1841-2.12977 5.39821-.0211 2.12977.63261 3.94323 1.9189 5.4193 1.28629 1.4339 2.93106 2.17194 4.95539 2.19303zm.10543-.82239c-1.34955 0-2.42498-.61151-3.22627-1.85563-.78021-1.24412-1.18086-2.90998-1.18086-4.95539 0-2.15085.46391-3.79562 1.37064-4.91322s1.98215-1.70803 3.22627-1.72911c1.26521 0 2.31955.61151 3.14193 1.81346.84347 1.20194 1.26521 2.8678 1.26521 4.99756 0 1.93998-.42174 3.54258-1.24412 4.7867-.82239 1.24412-1.93998 1.85563-3.3528 1.85563z"/><path d="m828.2519 937.38355h-.23196c-.10543.42173-.44282.69586-.71695.69586-.14761 0-.52717-.10543-1.15977-.33739-.67478-.23195-1.37064-.35847-2.08759-.35847-1.22303 0-2.21411.35847-2.99432 1.07542s-1.15977 1.6026-1.15977 2.65693c0 .86456.25304 1.62368.78021 2.27737s1.49716 1.37064 2.93106 2.15085c1.32846.75913 2.21411 1.41282 2.67802 1.98216.46391.54826.71695 1.18086.73803 1.87672 0 1.34956-1.11759 2.2352-2.72019 2.21411-1.1176.0211-2.02433-.35847-2.74128-1.13868-.69586-.78021-1.15977-1.7502-1.34955-2.93106h-.29522v4.95539h.27413c.0633-.35848.35848-.63261.71695-.69587h.33739c.82238.10544 1.93998.69587 3.22628.69587 1.45498 0 2.61475-.37956 3.43714-1.15977.86456-.78022 1.28629-1.70803 1.28629-2.80454 0-.82239-.25304-1.6026-.75912-2.29846-.50609-.71695-1.41282-1.45499-2.7202-2.2352-1.87672-1.1176-3.0154-1.89781-3.37388-2.34063-.35847-.44282-.52717-.90673-.52717-1.41281 0-1.18086 1.1176-2.02433 2.38281-2.02433.99108.0211 1.85563.42173 2.59367 1.15977.71695.73804 1.1176 1.66585 1.18086 2.74128h.27413z"/><path d="m844.29561 937.48898h-.25304c-.0211.50608-.33739.8013-.69587.78021-.16869 0-.3163 0-.92781-.25304-1.2863-.44282-2.25629-.6326-3.28954-.6326-2.2352 0-4.09083.69586-5.58799 2.10867-1.49716 1.39173-2.2352 3.1841-2.21411 5.37713 0 2.19302.73803 4.02757 2.19302 5.48256 1.47607 1.4339 3.28954 2.15085 5.4193 2.15085 2.53041 0 4.57583-1.09651 6.15733-3.31062l-.44282-.42174c-1.4339 1.77129-3.20519 2.65693-5.08191 2.65693-1.66585 0-3.01541-.56934-4.09083-1.72911-1.05434-1.15977-1.58151-2.78346-1.58151-4.89213 0-2.08759.50608-3.69019 1.53934-4.84996 1.03325-1.18086 2.34063-1.77129 3.92213-1.77129 2.67802 0 4.32279 1.66586 4.89213 4.04866l.27413-.0422z"/><path d="m852.74611 952.50276c2.10867 0 3.85888-.71695 5.22952-2.12977 1.37063-1.41281 2.04541-3.1841 2.04541-5.35603 0-2.17194-.65369-3.9854-1.93998-5.44039s-2.93106-2.19302-4.9343-2.19302c-2.00325.0211-3.73236.73803-5.14517 2.10867-1.41282 1.37064-2.12977 3.1841-2.12977 5.39821-.0211 2.12977.6326 3.94323 1.9189 5.4193 1.28629 1.4339 2.93106 2.17194 4.95539 2.19303zm.10543-.82239c-1.34955 0-2.42498-.61151-3.22627-1.85563-.78021-1.24412-1.18086-2.90998-1.18086-4.95539 0-2.15085.46391-3.79562 1.37064-4.91322s1.98215-1.70803 3.22627-1.72911c1.26521 0 2.31955.61151 3.14193 1.81346.84347 1.20194 1.26521 2.8678 1.26521 4.99756 0 1.93998-.42174 3.54258-1.24412 4.7867-.82239 1.24412-1.93999 1.85563-3.3528 1.85563z"/><path d="m859.08299 937.57333v.27413c.82239-.0211 1.28629.27412 1.70803 1.30737l5.12408 13.34793h.21087l3.54258-9.55231 3.66909 9.55231h.18979l4.21735-12.54663c.50608-1.68694 1.03325-2.00324 1.83455-2.10867v-.27413h-4.02757v.27413c.86455-.0211 1.45498.27412 1.45498.84347 0 .27412-.12652.71695-.21087 1.03325l-2.82562 8.22384-3.16302-8.2871c-.16869-.40065-.21086-.65369-.21086-.88565 0-.56934.54825-.92781 1.47607-.92781v-.27413h-5.63017v.27413c.82239-.0211 1.4339.44282 1.93999 1.70802l.73803 1.87673-2.42498 6.47363-3.35279-8.77209c-.3163-.78021.0843-1.20195 1.24412-1.28629v-.27413z"/></g><g transform="matrix(.49566553 0 0 .49566553 -542.9351934479 -381.31224)"><g fill="none"><g stroke="#333" transform="translate(-342.87772)"><path d="m1529.0453 770.04343c-10.7175 0-22.6536 4.73443-30.0333 13.92164-7.3796 9.18718-10.1074 20.84027-10.1074 33.54316 0 12.70288 2.7273 24.35579 10.1074 33.54266 7.3802 9.18688 19.3167 13.92007 30.0333 13.92007s22.6539-4.73284 30.0333-13.92007c7.3795-9.18724 10.1054-20.84039 10.1054-33.54266 0-12.70228-2.7264-24.35561-10.1054-33.54316-7.3789-9.18755-19.3157-13.92164-30.0333-13.92164z" stroke-linejoin="bevel" stroke-width="1.5"/><g><path d="m1550.5422 817.50743c0 19.88597-8.831 28.82068-21.4974 28.82068s-21.4974-8.93471-21.4974-28.82068 8.831-28.82069 21.4974-28.82069 21.4974 8.93472 21.4974 28.82069z" stroke-linejoin="bevel" stroke-width="1.5"/><g><path d="m1524.6895 789.07069-3.4053 29.91046c-.08.70062-.5394 1.54479-1.038 2.04339-.4986.49858-1.0727.81865-1.7429 1.03777l-10.4144 3.40479 10.4144 3.40532c.6701.21912 1.2443.5392 1.7429 1.03778.4986.4986.8723 1.25802 1.038 1.94345l3.4053 14.09056 3.4048-14.09106c.1656-.68531.5395-1.44445 1.038-1.94295.4985-.49848 1.2492-.91297 1.943-1.03778l18.926-3.40479-18.926-3.40532c-.6938-.12483-1.4445-.53929-1.943-1.03777-.4985-.4985-.9583-1.34239-1.038-2.04289z" stroke-linecap="round" stroke-linejoin="round" stroke-width="1.124"/><g transform="translate(156.7275 525.53873)"><g stroke-width="1.124"><path d="m1361.6783 299.92837h12.5672"/><path d="m1367.9619 293.64502v12.5667"/><g stroke-linejoin="round"><path d="m1363.5194 295.48531c1.137 1.13708 2.7072 1.84071 4.4421 1.84071 1.7348 0 3.306-.70363 4.4431-1.84071"/><path d="m1363.5193 304.37141c1.137-1.13708 2.7073-1.84071 4.4422-1.84071 1.7348 0 3.306.70363 4.4431 1.84071"/></g></g><path d="m1374.245 299.9282c0 3.47008-2.8137 6.28331-6.2833 6.28331-3.4697 0-6.2828-2.81323-6.2828-6.28331s2.8131-6.28298 6.2828-6.28298 6.2833 2.8129 6.2833 6.28298z" stroke-linecap="round" stroke-linejoin="round" stroke-width="1.123951"/></g></g></g></g><path d="m1186.1677 770.04343c-10.7176 0-22.6537 4.73443-30.0333 13.92164-7.3797 9.18718-10.1074 20.84027-10.1074 33.54316 0 12.70288 2.7272 24.35579 10.1074 33.54266 7.3801 9.18689 19.3167 13.92007 30.0333 13.92007s22.6538-4.73284 30.0333-13.92007c7.3795-9.18724 10.1053-20.84039 10.1053-33.54266 0-12.70228-2.7263-24.35561-10.1053-33.54316s-19.3158-13.92164-30.0333-13.92164zm0 18.64331c12.6664 0 21.4974 8.93448 21.4974 28.82046 0 19.88597-8.831 28.82098-21.4974 28.82098s-21.4974-8.93501-21.4974-28.82098c0-19.88598 8.831-28.82046 21.4974-28.82046z"/><path d="m1207.6645 817.50743c0 19.88597-8.8309 28.82068-21.4974 28.82068-12.6664 0-21.4974-8.93471-21.4974-28.82068s8.831-28.82069 21.4974-28.82069c12.6665 0 21.4974 8.93472 21.4974 28.82069z"/></g><g fill="#333" transform="translate(-505.65176 .26135)"><path d="m1705.3364 858.47053-.1481-.30552c.4725-.27706.7595-.53286.8364-.76489.091-.27368-.032-.75714-.3673-1.4495l-3.2381-6.6804c-.3356-.69235-.6394-1.08786-.9104-1.18622-.2298-.0832-.6083-.0165-1.1185.1827l-.1481-.30552 4.8347-2.34348c1.4157-.68623 2.5555-.87501 3.4197-.5665.8642.30852 1.4856.85296 1.8638 1.63316.313.64585.3894 1.29121.2299 1.9364-.1543.64266-.4945 1.19045-1.0214 1.64364-.5244.45836-2.0858 1.31769-3.3723 1.9413l-.4185.20285 1.3672 2.82079c.3357.69235.639 1.0881.91 1.18644.2298.0833.6084.0165 1.1188-.1834l.1483.30598zm.8686-6.97751c.8267-.4007 2.0735-1.2376 2.428-1.87525.3571-.63248.3481-1.33637-.028-2.11139-.3631-.7492-.906-1.21064-1.6281-1.38388-.7168-.17574-1.3929-.10924-2.0284.19879-.2532.1227-1.2456.64821-1.6652.94093l2.1864 4.51066c.2577-.0739.5024-.16718.7349-.27988z"/><path d="m1675.5347 843.45923-.148.29285c.2791.16356.4742.32248.5809.47611.1455.19582.2167.38623.2133.57109-.001.25679-.024.67658-.3514 1.07655l-4.9487 6.04895c-.4145.50662-.7194.83925-.915.94623-.3192.1732-1.5804-.29697-1.1397-.0742l-.101-.0511-.1439.28455 3.3601 1.69881.1439-.28455-.369-.18652c-.4099-.20725-.6553-.4664-.7361-.77749-.058-.22879.1628-.62769.5772-1.21374l5.0264-6.20251-1.4143 10.29689.2536.12825 7.9826-6.97604-2.0154 7.72475c-.1653.63335-.3622 1.01985-.5578 1.12685-.3141.17578-.6939.15119-1.1397-.0742l-.369-.18654-.1438.28455 4.1593 2.10289.1439-.28455-.094-.0474c-.41-.20726-.6553-.46643-.7361-.7775-.063-.23138.035-.70276.2125-1.39807l1.9379-7.5712c.1623-.63412.5404-.92971.736-1.03668.3192-.17319.7018-.14726 1.1476.0781l.094.0473.1436-.28407-2.6835-1.35679-7.3719 6.5124 1.3491-9.55741z"/><path d="m1687.4533 849.16374.024.33865c.548.003.9244.0829 1.1069.24561.2151.19192.402.67002.4049 1.43942l.028 7.44059c0 .7694-.011 1.26179-.1971 1.48222-.1576.187-.5192.31801-1.0611.39977l.024.33866 3.035-.21583 1.3928-.0991-.024-.33092c-.4026.006-.7024-.0216-.8885-.0875-.059-.0215-.1121-.0456-.1606-.0725l5.5854-10.29382c.047.18901.08.41611.099.68248l.065.91959.9737 6.64805c.1107.75559-.011 1.25601-.1966 1.48218-.1582.18774-.5292.31914-1.0874.40163l.024.33865 4.4449-.31605-.024-.33917c-.5478-.003-.9246-.0825-1.107-.24509-.2151-.19196-.2984-.67738-.4044-1.43945l-1.025-7.36969c-.106-.76206.01-1.26176.1966-1.48219.1575-.18695.5194-.31755 1.0611-.39924l-.024-.33917-3.0345.21576-1.4103.10031.023.32938c.4959-.0112.853.0461 1.0576.17864l-5.5874 10.323c-.033-.17695-.062-.40162-.085-.68712l-.067-.9366.022-6.74471c0-.76941.01-1.26175.1967-1.48219.1577-.18725.5225-.31844 1.0698-.4004l-.024-.33863z"/><path d="m1666.7081 824.96248-.3264.0936c.1091.53706.1101.92165-.011 1.13382-.1433.25015-.5771.5117-1.3246.69371l-7.219 1.75767c-.7476.18201-1.2369.24972-1.491.11349-.2155-.11552-.4184-.44221-.6104-.95551l-.3264.0936.8385 2.92487.3849 1.34222.3189-.0914c-.089-.39267-.124-.69175-.098-.88741.01-.0619.021-.11905.038-.17209l11.2261 3.33679c-.1753.085-.3906.16464-.6473.23823l-.8862.25408-6.3582 2.13476c-.724.24306-1.2312.24864-1.4908.11399-.2164-.11598-.4217-.45177-.6178-.98084l-.3263.0936 1.228 4.2835.3269-.0937c-.1091-.53685-.1106-.92158.011-1.13368.1433-.25015.5943-.4515 1.3247-.69323l7.0538-2.33414c.7304-.24171 1.2367-.25022 1.4908-.114.2154.11549.418.44256.61.95566l.3268-.0937-.8384-2.92438-.3897-1.35911-.3174.091c.1134.48296.1312.84408.044 1.07174l-11.255-3.33278c.1663-.0687.3802-.14325.6546-.22536l.9026-.25877 6.5484-1.5654c.7483-.17888 1.2368-.25022 1.4908-.114.2158.11567.4196.44548.6129.96396l.3264-.0936z"/><path d="m1662.0281 788.77679 6.0113 8.28006c.5011.76684.8399 1.26584.9049 1.66269.026.15203-.02.38351-.1347.69004l.3159.21282 1.72-2.55303-.2893-.19487c-.258.29922-.4724.48274-.6381.5384-.2073.0612-.3849.0417-.5325-.0578-.1857-.12509-.4678-.31211-.7349-.72751l-1.158-1.5802 2.2807-3.38533 1.77.37866c.5807.1143.9758.24242 1.1853.38357.1571.10586.2439.26451.2604.47639.015.15861-.048.37469-.1857.64566l.2858.19255 2.2395-3.32403-.294-.19807c-.2345.24604-.4844.40882-.7498.48309-.3429.0876-.9293.0486-1.7598-.11625l-10.3287-2.0566zm2.0992 1.6778 4.9745 1.06399-2.0093 2.98246z"/><path d="m1655.3845 804.86737 8.7706 5.26996c.7611.50981 1.2681.83655 1.4831 1.1764.084.1296.1319.36111.1458.68825 0 .1145-.04.34392-.04.34392l2.176.53567.072-.37088c-.2799-.12052-.5118-.26588-.6852-.44151-.2641-.26746-.4215-.55799-.4719-.87185-.035-.24076-.001-.62888.1026-1.16443l.2667-1.37849.2755-1.42466.4693-2.42569.3124-1.61492c.092-.47353.2437-.83886.4572-1.09582.2089-.2637.494-.45161.8548-.56311.1353-.041.3245-.0619.5557-.0673l.074-.38305-2.2169-.32147s-.041.27773-.067.34754c-.1194.31821-.2865.56605-.5018.73824-.2813.2146-.8363.40808-1.6651.5811l-10.2173 2.12693-.092.0153-.0007.004-.056.29173zm2.5936.72225 7.4404-1.43929c.5792-.1219.9929-.15848 1.2409-.1105.1861.036.3279.14809.426.33663.076.14.1024.36339.082.66635l-.0001.00051-.7667 3.9419c-.1205.37629-.246.62902-.3768.74506-.1669.13731-.3379.18886-.5127.15506-.2198-.0425-.5526-.10386-.9608-.3822l-6.4587-3.84217z"/><path d="m1668.5891 781.27945 1.303 2.41301.2801-.16999c-.2397-.47245-.3492-.89607-.3285-1.27135.021-.37529.1303-.68707.3289-.93524.1547-.18789.4652-.42317.9316-.70616l1.4565-.88393 4.629 7.62772c.3396.55959.5036.95081.4909 1.17342-.022.36248-.2443.6717-.6664.92789l-.097.0587.1654.27259 3.7207-2.25796-.1655-.27258-.09.0544c-.3877.23533-.7374.30652-1.0491.21356-.2249-.0718-.5235-.4144-.8959-1.02798l-4.629-7.62773 1.6633-1.0094c.4123-.25022.7852-.38291 1.1189-.39736.3357-.0224.666.0629.9909.25522.2005.12012.4529.36994.7571.74951l.2796-.16971-1.5313-2.2744z"/><path d="m1681.5603 774.48358.052.31459.1122-.0185c.4759-.0785.8345-.0211 1.0759.17182.1753.14565.3231.58392.4437 1.31472l1.2353 7.48642c.092.56085.1198.93737.082 1.12988-.032.19156-.1319.34763-.2983.46821-.2221.17053-.4687.27847-.7406.32334l-.1122.0185.052.31408 8.5842-1.41646.4643-2.74043-.4007.0661c-.2194.60909-.4532 1.09584-.7029 1.44423-.228.31115-.482.53633-.7616.67561-.2796.13929-.745.26277-1.3965.37028l-1.9543.32248c-.3173.0523-.5379.0568-.6615.0133-.1245-.0493-.2185-.12415-.2816-.22431-.064-.10582-.1378-.41353-.222-.92341l-.6268-3.79856 1.7145-.28291c.4816-.0795.8478-.0818 1.0988-.007.2509.075.4436.2034.5783.38485.083.11432.1925.38942.3163.75178l.365-.0602-.5641-3.41868-.3411.0563c.019.51038-.076.89771-.2876 1.15782-.1883.23475-.6108.40613-1.268.51456l-1.7145.2829-.7515-4.55465 3.1612-.52163c.5722-.0944.9786-.11779 1.2192-.0702.3029.0722.5438.20963.7228.41286.1521.16656.3165.47074.4917.89776l.3814-.0629-.4802-2.20903z"/><path d="m1703.2754 774.94022-6.4729 7.92458c-.6137.68012-1.0095 1.13459-1.3767 1.29863-.1403.0643-.376.0794-.7018.0465l-.125.35967 2.9073 1.01182.1142-.3297c-.3551-.17316-.5871-.33345-.6832-.47955-.112-.18484-.1385-.36156-.08-.52969.073-.21147.1828-.53183.5163-.89607l4.8152-5.94847.3576 7.57577c.037.59068.014 1.00525-.069 1.24385-.062.17894-.1931.30309-.3938.3731-.1495.0551-.3746.0491-.6718-.015l-.1131.32556 3.7853 1.31775.1162-.33487c-.2977-.16398-.5188-.36377-.6583-.60151-.1722-.30914-.284-.88661-.3365-1.73168l-.6459-10.5115z"/><path d="m1712.9709 779.41719-.2177.26053c.3913.3833.6077.70101.626.94477.022.28749-.2141.7269-.7075 1.31728l-4.7605 5.69652c-.4934.59039-.884.90051-1.1707.93024-.2432.0249-.5943-.13129-1.0409-.44831l-.2178.2605 4.3754 3.65643c1.2072 1.00885 2.2672 1.46816 3.1804 1.37827.9132-.0898 1.7766-.62133 2.3326-1.28662.4602-.55073.755-1.23533.7567-1.8999.01-.66091-.1224-1.37847-.6945-2.18767-.3977-.57177-1.7269-1.80295-2.8239-2.71975l-.3569-.29824 1.689-2.0211c.4934-.59039.8835-.90082 1.1703-.93056.2433-.0249.5942.13176 1.041.44904l.218-.26092zm-.5271 6.59572c.705.58911 1.9646 1.91465 2.154 2.61921.2554.92599-.025 1.73919-.5778 2.40009-.5338.63886-1.301 1.1088-2.0434 1.10188-.7382-.003-1.784-.57086-2.3259-1.02374-.2159-.18042-1.0514-.93075-1.3875-1.31646l3.5354-4.23061c.2321.13415.447.28397.6452.44965z"/><path d="m1658.29 821.59757-3.3933.0356v-.30143q.567-.14376.5618-.64327 0-.18947-.2411-.80712-.3633-.96948-.3745-2.0374-.015-1.44686.8455-2.33444.8606-.88758 2.0232-.89978 1.0593-.0111 1.8242.64408.7562.65528 1.1208 1.74533.2028-1.19075 1.065-1.93192.8535-.74108 2.0248-.75337 1.4469-.0152 2.3715 1.09483.9246 1.11002.9421 2.77218.026 2.47172-2.3023 3.85704l-.1926-.29082q.7102-.44673 1.2182-1.28754.508-.84082.4979-1.80539-.012-1.14543-.7765-1.76617-.7732-.62927-1.8756-.6177-1.1368.0119-1.9121.82109-.7753.80917-.7559 2.66081l-.5684.006q-.014-1.30906-.2963-1.96932-.2826-.66025-.907-1.06713-.6244-.40688-1.4426-.3983-.9473.01-1.5441.59329-.5968.58335-.5864 1.57376.013 1.23156.7523 1.92147.7306.68139 1.9214.88422z"/><path d="m1727.1049 800.61724-3.6026 1.6902-.097-.24878q1.4673-1.14479 1.838-2.35221.3707-1.20743-.1327-2.49947-.4221-1.0834-1.3166-1.74239-.8866-.66212-2.2873-.69869-1.3977-.0286-3.1873.66871-1.4766.57532-2.3755 1.47092-.8989.89559-1.1078 2.06768-.2057 1.18012.2696 2.39994.4127 1.05931 1.1779 1.69476.7733.63231 2.4998 1.07806l-.064.31131q-1.7715-.25262-2.8708-1.08139-1.0994-.82878-1.6841-2.32947-1.0537-2.70447.3742-4.97081 1.0612-1.68904 3.0835-2.47698 1.6291-.63473 3.2779-.43599 1.6488.19874 2.8923 1.18395 1.2546.99011 1.8456 2.50686.4596 1.17969.3289 2.55241-.045.40585.011.5503.084.21668.2995.31777.2979.12423.7175.0624z"/><path d="m1725.9837 836.62281q-.7388 2.1504-2.9161 3.15999-2.172 1.02053-4.6156.18101-2.517-.8647-3.633-3.02394-1.1159-2.15924-.3408-4.41552.7836-2.28073 2.939-3.27962 2.1527-.99075 4.7266-.10646 2.631.90389 3.677 3.26676.9073 2.0511.1629 4.21778zm-.5415-.35904q.5093-1.48247-.2825-2.75626-.985-1.58606-3.6241-2.49274-2.7043-.92907-4.5597-.27333-1.4128.50727-1.9138 1.9653-.5345 1.55578.3322 2.98278.8639 1.43514 3.4786 2.33343 2.8346.97384 4.6108.33645 1.4156-.51542 1.9585-2.09563z"/><path d="m1727.4906 803.70708-2.736.18627.039.32535c.5293-.022.9602.0534 1.2932.22772.3329.17441.5714.40317.715.68678.1069.21858.1924.59872.2568 1.14038l.2011 1.69186-8.8601 1.05316c-.65.0772-1.074.0644-1.2714-.0393-.3208-.17-.5101-.50059-.5684-.99093l-.014-.1124-.3166.0375.5137 4.32177.3166-.0376-.012-.10416c-.054-.45043.027-.79821.2403-1.04334.1585-.17494.594-.3048 1.3067-.38951l8.8601-1.05316.2296 1.93201c.057.47894.024.87323-.1018 1.18301-.1187.3148-.3332.58004-.6428.79613-.1924.13273-.5243.25892-.9958.37856l.039.32483 2.7044-.45157z"/><path d="m1728.5973 816.17477-.3186-.01v.13893c-.014.44192-.1498.77077-.4092.98689-.1944.16065-.6532.22976-1.3763.20767l-7.5413-.23023c-.6542-.0199-1.0801-.0989-1.277-.23701-.3034-.22181-.4477-.57646-.4328-1.06428v-.13895l-.3182-.01-.159 5.20967c-.04 1.31426.062 1.89327.2844 2.53767.2271.65032.5991 1.16701 1.1159 1.55044.5225.3836 1.0734.58442 1.6531.60212.7633.0233 1.4174-.23553 1.9624-.77609.3911-.39017.6851-.9869.8819-1.79086.2027.70126.5279 1.23683.9762 1.60666.454.37002.9737.5638 1.5591.58168.683.0208 1.2925-.18711 1.8286-.62456.5418-.43728.9296-1.08335 1.1625-1.93792.155-.56396.2348-.91691.2635-1.85813zm-.717 4.5717c-.033 1.06748-.2863 1.47239-.7853 2.01437-.4991.54197-1.09.80272-1.7729.78187-.442-.0135-.8462-.13785-1.2124-.37307-.3662-.23521-.6348-.5678-.8055-.99812-.1651-.42439-.2468-.65553-.2216-1.4934.01-.32713.028-.62815.053-.90312.031-.26905.07-.50912.1167-.72025l4.485.13692c.1122.46299.1598.98092.1422 1.55484zm-5.3881-.18981c-.025.82068-.1544 1.10572-.4125 1.65506-.258.54934-.6005.94082-1.027 1.17481s-.8662.34373-1.3196.32989c-.6887-.0211-1.2602-.31116-1.7142-.87076-.4482-.5594-.6687-.95852-.637-1.99729.02-.64853.1174-1.30295.2927-1.96396l4.7866.14614c.024.1559.037.36.041.61287 0 .25289.0006.55741-.01.91323z"/><path d="m1715.5355 841.28406c-.1056 0-.1951.0376-.2682.11317-.07.0755-.1055.18623-.1055.33176 0 .10354.072.99684.072.99684l.037.51676-.339-.3917s-.5816-.68229-.6548-.75551c-.1029-.1029-.2059-.15598-.309-.15968-.1056-.001-.1952.035-.2698.10955-.075.0746-.1112.1646-.1095.26975 0 .10312.057.20613.1602.30903.073.0732.7555.6537.7555.6537l.3917.339-.5168-.0367s-.8938-.0713-.9973-.0713c-.1456 0-.2557.0351-.3313.10542-.076.0737-.1137.16272-.1137.2682s.038.19503.1137.2682c.075.0703.1857.10542.3313.10542.1035 0 .9973-.0718.9973-.0718l.5158-.0367-.3912.33899s-.6823.58101-.7555.65423c-.1029.1029-.156.20587-.1597.30902 0 .10555.035.19569.1095.27027.074.0746.1647.11072.2698.10904.1032-.004.2061-.0567.309-.15968.073-.0732.6542-.75551.6542-.75551l.3401-.39223-.037.51729s-.072.89329-.072.99683c0 .14555.035.25619.1055.33177.074.0755.1628.11317.2682.11317.1053 0 .1949-.0375.2681-.11317.07-.0756.1055-.18622.1055-.33177 0-.10354-.072-.99683-.072-.99683l-.037-.51677.3396.39171s.581.68229.6542.75551c.1029.10292.2058.15597.309.15968.1055.001.1952-.035.2697-.10955.075-.0745.1112-.1645.1096-.26976 0-.10318-.057-.20611-.1597-.30902-.073-.0732-.7555-.65423-.7555-.65423l-.3912-.33899.5163.0367s.8932.0718.9968.0718c.1455 0 .2557-.0351.3313-.10542.076-.0737.1137-.16272.1137-.2682 0-.1054-.038-.19495-.1137-.2682-.076-.0703-.1858-.10542-.3313-.10542-.1036 0-.9968.0713-.9968.0713l-.5173.0372.3917-.33952s.6827-.581.756-.65422c.1029-.10291.156-.20586.1597-.30902 0-.10549-.035-.19517-.1096-.26976-.074-.0745-.1644-.1107-.2697-.10903-.1031.004-.2061.0567-.309.15968-.073.0732-.6542.75551-.6542.75551l-.3396.3917.037-.51676s.072-.8933.072-.99684c0-.14553-.035-.25621-.1055-.33176-.074-.0756-.1626-.11317-.2681-.11317z"/><path d="m1667.9099 841.28406c-.1056 0-.1951.0376-.2682.11317-.07.0755-.1055.18623-.1055.33176 0 .10354.072.99684.072.99684l.037.51676-.339-.3917s-.5816-.68229-.6548-.75551c-.1029-.1029-.2059-.15598-.309-.15968-.1056-.001-.1952.035-.2698.10955-.075.0746-.1112.1646-.1095.26975 0 .10312.057.20613.1602.30903.073.0732.7555.6537.7555.6537l.3917.339-.5168-.0367s-.8938-.0713-.9973-.0713c-.1456 0-.2557.0351-.3313.10542-.076.0737-.1137.16272-.1137.2682s.038.19503.1137.2682c.075.0703.1857.10542.3313.10542.1035 0 .9973-.0718.9973-.0718l.5158-.0367-.3912.33899s-.6823.58101-.7555.65423c-.1029.1029-.156.20587-.1597.30902 0 .10555.035.19569.1095.27027.074.0746.1647.11072.2698.10904.1032-.004.2061-.0567.309-.15968.073-.0732.6542-.75551.6542-.75551l.3401-.39223-.037.51729s-.072.89329-.072.99683c0 .14555.035.25619.1055.33177.074.0755.1628.11317.2682.11317.1053 0 .1949-.0375.2681-.11317.07-.0756.1055-.18622.1055-.33177 0-.10354-.072-.99683-.072-.99683l-.037-.51677.3396.39171s.581.68229.6542.75551c.1029.10292.2058.15597.309.15968.1055.001.1952-.035.2697-.10955.075-.0745.1112-.1645.1096-.26976 0-.10318-.057-.20611-.1597-.30902-.073-.0732-.7555-.65423-.7555-.65423l-.3912-.33899.5163.0367s.8932.0718.9968.0718c.1455 0 .2557-.0351.3313-.10542.076-.0737.1137-.16272.1137-.2682 0-.1054-.038-.19495-.1137-.2682-.076-.0703-.1858-.10542-.3313-.10542-.1036 0-.9968.0713-.9968.0713l-.5173.0372.3917-.33952s.6827-.581.756-.65422c.1029-.10291.156-.20586.1597-.30902 0-.10549-.035-.19517-.1096-.26976-.074-.0745-.1644-.1107-.2697-.10903-.1031.004-.2061.0567-.309.15968-.073.0732-.6542.75551-.6542.75551l-.3396.3917.037-.51676s.072-.8933.072-.99684c0-.14553-.035-.25621-.1055-.33176-.074-.0756-.1626-.11317-.2681-.11317z"/></g></g></svg>