<svg width="400" height="300" xmlns="http://www.w3.org/2000/svg">
  <defs>
    <linearGradient id="bgGrad3" x1="0%" y1="0%" x2="100%" y2="100%">
      <stop offset="0%" style="stop-color:#2ECC71;stop-opacity:1" />
      <stop offset="100%" style="stop-color:#3498DB;stop-opacity:1" />
    </linearGradient>
  </defs>
  <rect width="400" height="300" fill="url(#bgGrad3)"/>
  
  <!-- Distribution curve -->
  <path d="M 50,200 Q 100,100 150,80 T 250,80 T 350,200" fill="none" stroke="white" stroke-width="3" opacity="0.5"/>
  
  <!-- Sample path -->
  <polyline points="80,180 120,160 140,140 180,130 200,110 240,120 280,140 300,160" 
            fill="none" stroke="#FFD700" stroke-width="3" stroke-linecap="round" stroke-linejoin="round"/>
  
  <!-- Sample points -->
  <circle cx="80" cy="180" r="5" fill="white"/>
  <circle cx="120" cy="160" r="5" fill="white"/>
  <circle cx="140" cy="140" r="5" fill="white"/>
  <circle cx="180" cy="130" r="5" fill="white"/>
  <circle cx="200" cy="110" r="5" fill="#FF6B6B"/>
  <circle cx="240" cy="120" r="5" fill="white"/>
  <circle cx="280" cy="140" r="5" fill="white"/>
  <circle cx="300" cy="160" r="5" fill="white"/>
  
  <text x="200" y="280" font-family="Arial, sans-serif" font-size="22" fill="white" text-anchor="middle" font-weight="bold">Metropolis-Hastings</text>
</svg>
